<?xml version="1.0" encoding="utf-8"?>
<!-- Svg Vector Icons : http://www.onlinewebfonts.com/icon -->
<!DOCTYPE svg PUBLIC "-//W3C//DTD SVG 1.1//EN" "http://www.w3.org/Graphics/SVG/1.1/DTD/svg11.dtd">
<svg version="1.1" xmlns="http://www.w3.org/2000/svg" xmlns:xlink="http://www.w3.org/1999/xlink" x="0px" y="0px" viewBox="0 0 256 256" enable-background="new 0 0 256 256" xml:space="preserve">
<metadata> Svg Vector Icons : http://www.onlinewebfonts.com/icon </metadata>
<g><g><g><path fill="#000000" d="M150.9,63.5c-36.1,0-65.5,29.4-65.5,65.5c0,36.1,29.4,65.5,65.5,65.5s65.5-29.4,65.5-65.5C216.4,92.9,187,63.5,150.9,63.5z M150.9,187.1c-32,0-58.1-26.1-58.1-58.1c0-32,26.1-58.1,58.1-58.1V187.1z M154.5,211.3v31.5c0,1.8-1.5,3.3-3.3,3.3c-1.8,0-3.3-1.4-3.3-3.3v-31.5c0-1.8,1.5-3.3,3.3-3.3S154.5,209.5,154.5,211.3z M104.5,192.1c1.4,1.1,1.8,3.1,0.7,4.6l-18.5,25.5c-0.6,0.9-1.6,1.3-2.6,1.3c-0.7,0-1.3-0.2-1.9-0.6c-1.4-1.1-1.8-3.1-0.7-4.6l18.5-25.5C101,191.4,103,191.1,104.5,192.1z M75.9,151.7c0.6,1.7-0.4,3.5-2.1,4.1l-29.9,9.7c-0.3,0.1-0.7,0.2-1,0.2c-1.4,0-2.6-0.9-3.1-2.2c-0.6-1.7,0.4-3.5,2.1-4.1l30-9.7C73.5,149.1,75.4,150,75.9,151.7z M76.6,102.3c-0.5,1.4-1.7,2.2-3.1,2.2c-0.3,0-0.7,0-1-0.2l-29.9-9.7c-1.7-0.6-2.6-2.4-2.1-4.1c0.6-1.7,2.4-2.6,4.1-2.1l29.9,9.7C76.2,98.7,77.1,100.6,76.6,102.3z M83.1,36.5c-1.1-1.4-0.7-3.5,0.7-4.6c1.4-1.1,3.5-0.7,4.6,0.7l18.5,25.5c1.1,1.4,0.7,3.5-0.7,4.6c-0.6,0.4-1.3,0.6-1.9,0.6c-1,0-2-0.5-2.6-1.3L83.1,36.5z M150.1,44.8V13.3c0-1.8,1.5-3.3,3.3-3.3c1.8,0,3.3,1.4,3.3,3.3v31.5c0,1.8-1.4,3.3-3.3,3.3C151.6,48,150.1,46.5,150.1,44.8z"/></g><g></g><g></g><g></g><g></g><g></g><g></g><g></g><g></g><g></g><g></g><g></g><g></g><g></g><g></g><g></g></g></g>
</svg>